<svg fill="none" height="22" viewBox="0 0 92 22" width="92" xmlns="http://www.w3.org/2000/svg" xmlns:xlink="http://www.w3.org/1999/xlink"><linearGradient id="a" gradientUnits="userSpaceOnUse" x1="21.54" x2="13.3171" y1="1.76" y2="22.5217"><stop offset="0" stop-color="#6c98a2"/><stop offset=".536458" stop-color="#7179c7"/><stop offset="1" stop-color="#8e3bc6"/></linearGradient><path clip-rule="evenodd" d="m12 0h12l-12 11h12l-12 11h-11.99999946l11.99999946-11h-11.99999946z" fill="url(#a)" fill-rule="evenodd"/><g fill="#272657"><path d="m34 17.8799 5.2-14.00002h2.98l5.22 14.00002h-3.16l-1.08-2.86h-5.18l-1.06 2.86zm4.9-5.34h3.36l-1.68-4.86002z"/><path d="m49.0091 17.8799v-14.00002h2.98v14.00002z"/><path d="m55.0106 17.8799v-14.00002h2.98v5.56h6v-5.56h2.98v14.00002h-2.98v-5.96h-6v5.96z"/><path d="m73.0259 18.1199c-1.2266 0-2.1533-.3467-2.78-1.04-.6266-.7067-.94-1.7933-.94-3.26v-6.54002h2.62v6.18002c0 .8.1534 1.4066.46 1.82.32.4.8534.6 1.6.6.5334 0 .96-.1133 1.28-.34.3334-.2267.58-.52.74-.88s.24-.76.24-1.2v-6.18002h2.64v10.60002h-2.44v-1.58c-.2533.4933-.66.92-1.22 1.28-.5466.36-1.28.54-2.2.54z"/><path d="m86.7805 18.1199c-.88 0-1.6067-.18-2.18-.54-.5734-.36-.9934-.78-1.26-1.26v1.56h-2.44v-14.00002h2.62v4.86c.3333-.50666.7733-.91333 1.32-1.22.56-.32 1.2066-.48 1.94-.48 1.4133 0 2.5133.44 3.3 1.32.8.86667 1.2 2.17332 1.2 3.92002v.4c0 1.2133-.1867 2.2267-.56 3.04-.36.8-.8734 1.4-1.54 1.8-.6667.4-1.4667.6-2.4.6zm-.62-2.24c.6933 0 1.2733-.26 1.74-.78.4666-.5334.7-1.34.7-2.42v-.4c0-1-.2267-1.7467-.68-2.24-.44-.50668-1.0267-.76002-1.76-.76002-.5067 0-.96.1-1.36.3-.4.18667-.7134.47332-.94.86002-.2267.3733-.34.8533-.34 1.44v1.2c0 .6267.1066 1.1533.32 1.58.2266.4133.54.72.94.92s.86.3 1.38.3z"/></g></svg>