<svg width="386" height="288" viewBox="0 0 386 288" fill="none" xmlns="http://www.w3.org/2000/svg">
<g clip-path="url(#clip0_132_2)">
<path d="M385.731 252.611H0V252.804H385.731V252.611Z" fill="#EBEBEB"/>
<path d="M56.831 259.958H40.47V260.151H56.831V259.958Z" fill="#EBEBEB"/>
<path d="M197.58 257.865H132.028V258.058H197.58V257.865Z" fill="#EBEBEB"/>
<path d="M81.6009 267.122H52.2019V267.315H81.6009V267.122Z" fill="#EBEBEB"/>
<path d="M347.081 265.826H313.759V266.019H347.081V265.826Z" fill="#EBEBEB"/>
<path d="M311.242 265.826H302.005V266.019H311.242V265.826Z" fill="#EBEBEB"/>
<path d="M286.127 262.569H268.383V262.762H286.127V262.569Z" fill="#EBEBEB"/>
<path d="M259.468 262.569H222.095V262.762H259.468V262.569Z" fill="#EBEBEB"/>
<path d="M182.847 218.205H33.879C32.7128 218.203 31.595 217.738 30.7704 216.914C29.9457 216.089 29.4814 214.971 29.479 213.805V4.40305C29.4811 3.23675 29.9454 2.11882 30.7701 1.29412C31.5948 0.469415 32.7127 0.00516655 33.879 0.00305176H182.848C184.014 0.00516655 185.132 0.469415 185.957 1.29412C186.782 2.11882 187.246 3.23675 187.248 4.40305V213.803C187.246 214.97 186.782 216.088 185.957 216.913C185.132 217.738 184.014 218.203 182.847 218.205ZM33.879 0.191051C32.7626 0.191846 31.6921 0.635619 30.9026 1.42495C30.1131 2.21427 29.6691 3.28464 29.668 4.40105V213.801C29.6691 214.918 30.1131 215.988 30.9025 216.778C31.692 217.567 32.7625 218.011 33.879 218.012H182.848C183.964 218.011 185.035 217.567 185.824 216.777C186.613 215.988 187.057 214.917 187.058 213.801V4.40305C187.057 3.28681 186.613 2.2166 185.824 1.4273C185.034 0.638001 183.964 0.194109 182.848 0.19305L33.879 0.191051Z" fill="#EBEBEB"/>
<path d="M349.711 218.205H200.742C199.576 218.203 198.458 217.739 197.633 216.914C196.808 216.089 196.344 214.971 196.342 213.805V4.40305C196.344 3.23667 196.808 2.11859 197.633 1.29383C198.458 0.469068 199.576 0.00490295 200.742 0.00305176H349.711C350.877 0.00516655 351.995 0.469415 352.82 1.29412C353.645 2.11882 354.109 3.23675 354.111 4.40305V213.803C354.109 214.97 353.645 216.088 352.82 216.913C351.996 217.738 350.878 218.203 349.711 218.205ZM200.743 0.191051C199.627 0.192375 198.557 0.636353 197.768 1.42559C196.978 2.21484 196.534 3.2849 196.533 4.40105V213.801C196.534 214.917 196.978 215.988 197.767 216.777C198.556 217.567 199.627 218.011 200.743 218.012H349.712C350.829 218.011 351.899 217.567 352.688 216.778C353.478 215.988 353.922 214.918 353.923 213.801V4.40305C353.922 3.28603 353.478 2.215 352.688 1.42524C351.898 0.63548 350.827 0.191581 349.71 0.191051H200.743Z" fill="#EBEBEB"/>
<path d="M57.882 252.611H69.761L69.761 161.178H57.882L57.882 252.611Z" fill="#F0F0F0"/>
<path d="M173.743 161.179H69.761V252.612H173.743V161.179Z" fill="#F5F5F5"/>
<path d="M174.692 195.683H83.397V244.585H174.692V195.683Z" fill="#FAFAFA"/>
<path d="M174.692 174.394H83.397V190.494H174.692V174.394Z" fill="#FAFAFA"/>
<g style="mix-blend-mode:multiply" opacity="0.7">
<path d="M82.581 244.584H83.396V195.682H82.581V244.584Z" fill="#E6E6E6"/>
</g>
<g style="mix-blend-mode:multiply" opacity="0.7">
<path d="M82.581 190.493H83.396V174.393H82.581V190.493Z" fill="#E6E6E6"/>
</g>
<g style="mix-blend-mode:multiply" opacity="0.7">
<path d="M57.8821 167.104L174.006 167.104V165.036H57.8821V167.104Z" fill="#E6E6E6"/>
</g>
<path d="M56.494 165.907H69.761V159.927H56.494V165.907Z" fill="#F0F0F0"/>
<path d="M175.131 159.928H69.761V165.908H175.131V159.928Z" fill="#F5F5F5"/>
<path d="M100.945 142.371C100.283 141.423 99.8952 140.311 99.825 139.157C99.7266 137.991 99.828 136.817 100.125 135.685C100.73 133.449 101.81 131.37 103.292 129.59C104.011 128.717 104.782 127.889 105.601 127.11C106.028 126.747 106.45 126.379 106.885 126.03C107.306 125.664 107.748 125.324 108.211 125.012C109.123 124.378 110.067 123.792 111.039 123.256C112.039 122.767 113.029 122.275 114.072 121.887C113.344 122.749 112.561 123.507 111.789 124.268C111.017 125.029 110.289 125.819 109.516 126.55C108.743 127.281 108.069 128.093 107.323 128.834C106.966 129.22 106.64 129.622 106.298 130.013C105.943 130.389 105.609 130.784 105.298 131.197C103.994 132.761 102.897 134.487 102.034 136.331C101.608 137.253 101.288 138.221 101.08 139.215C100.844 140.25 100.798 141.32 100.945 142.371Z" fill="#E6E6E6"/>
<path d="M82.9139 139.14C83.2442 138.222 83.4133 137.253 83.4139 136.277C83.4156 135.825 83.3822 135.374 83.3139 134.927C83.2224 134.498 83.1025 134.075 82.9549 133.661C82.2621 132.019 81.2108 130.552 79.8779 129.368C79.5529 129.045 79.1669 128.768 78.8169 128.461C78.4709 128.14 78.1034 127.843 77.7169 127.572C76.9269 127.032 76.2099 126.392 75.3699 125.89C74.9626 125.623 74.5573 125.348 74.1539 125.065C73.7539 124.776 73.3479 124.488 72.9199 124.233C72.0869 123.682 71.2439 123.133 70.4299 122.476C71.4457 122.625 72.4525 122.83 73.4459 123.089C73.9458 123.208 74.4359 123.365 74.9119 123.558C75.3926 123.739 75.8713 123.929 76.3479 124.126L77.0629 124.426C77.2939 124.538 77.5199 124.674 77.7489 124.796C78.2059 125.045 78.6549 125.313 79.1079 125.575C79.5622 125.845 79.9948 126.149 80.4019 126.486C80.8129 126.825 81.2459 127.129 81.6359 127.502C83.3059 128.996 84.4518 130.987 84.9049 133.181C84.9642 133.46 84.99 133.745 84.9819 134.03C84.9819 134.315 85.0089 134.595 84.9819 134.874C84.9307 135.429 84.8156 135.976 84.6389 136.505C84.3137 137.526 83.7142 138.438 82.9059 139.142L82.9139 139.14Z" fill="#E6E6E6"/>
<path d="M83.7401 139.141C84.1554 137.094 84.2049 134.989 83.8861 132.925C83.5721 130.976 82.9113 129.099 81.9351 127.383L81.1671 126.109C80.8821 125.699 80.5611 125.309 80.2671 124.903L79.8231 124.286L79.3081 123.721C78.9651 123.344 78.6281 122.955 78.2931 122.564C77.5681 121.829 76.8081 121.107 76.0691 120.334C75.2761 119.627 74.4691 118.918 73.7031 118.097C74.7519 118.443 75.782 118.844 76.7891 119.297C77.7667 119.83 78.7154 120.415 79.6311 121.049C80.0651 121.404 80.4991 121.766 80.9261 122.138L81.5661 122.697L82.1351 123.337C82.5101 123.769 82.8881 124.199 83.2441 124.648L84.1701 126.114C85.3298 128.149 85.925 130.458 85.8941 132.8C85.89 135.09 85.1351 137.316 83.7451 139.136L83.7401 139.141Z" fill="#E6E6E6"/>
<path d="M99.9601 140.28C98.4145 138.36 97.1105 136.258 96.0771 134.02C95.0228 131.792 94.1736 129.472 93.5401 127.09C92.9206 124.687 92.5625 122.225 92.4721 119.745C92.4054 117.255 92.785 114.773 93.5931 112.416C93.8061 114.885 94.0771 117.221 94.4811 119.549C94.9251 121.87 95.4461 124.158 96.0241 126.449C96.6301 128.732 97.2801 131.011 97.9531 133.303C98.6261 135.595 99.3241 137.896 99.9601 140.28Z" fill="#E6E6E6"/>
<path d="M99.159 139.898C97.3209 138.134 95.6818 136.174 94.271 134.052C92.8417 131.945 91.585 129.726 90.513 127.417C89.4409 125.093 88.596 122.67 87.99 120.183C87.3859 117.682 87.1994 115.099 87.438 112.537C88.209 114.983 89.016 117.294 89.917 119.584C90.837 121.864 91.831 124.103 92.844 126.345C93.875 128.582 94.944 130.803 96.013 133.045C97.082 135.287 98.158 137.545 99.159 139.898Z" fill="#E6E6E6"/>
<path d="M102.296 142.834C100.11 141.525 98.0742 139.98 96.225 138.227C94.3621 136.493 92.6422 134.612 91.082 132.602C89.5181 130.575 88.1537 128.402 87.008 126.113C85.8602 123.811 85.1013 121.334 84.762 118.784C86.062 120.994 87.362 123.068 88.752 125.098C90.152 127.116 91.627 129.076 93.115 131.038C94.615 132.986 96.158 134.914 97.701 136.862C99.244 138.81 100.795 140.764 102.296 142.834Z" fill="#E6E6E6"/>
<path d="M97.577 139.473C95.4664 138.42 93.505 137.091 91.744 135.522C89.9686 133.969 88.3504 132.245 86.913 130.374C85.4691 128.49 84.2496 126.445 83.279 124.279C82.3088 122.108 81.7243 119.785 81.552 117.413C82.733 119.474 83.809 121.442 85.052 123.326C86.295 125.21 87.575 127.038 88.952 128.82C90.329 130.602 91.729 132.363 93.181 134.12C94.633 135.877 96.107 137.625 97.577 139.473Z" fill="#E6E6E6"/>
<path d="M101.347 141.622C100.481 141.005 99.752 140.215 99.2052 139.304C98.6584 138.392 98.3056 137.377 98.1689 136.322C97.8795 134.169 98.2272 131.979 99.1689 130.022L99.491 129.295L99.8849 128.616L100.711 127.287C101.026 126.876 101.35 126.476 101.683 126.087C101.999 125.684 102.341 125.302 102.708 124.944C103.436 124.238 104.204 123.574 105.008 122.956C105.837 122.375 106.697 121.841 107.585 121.356C107.068 122.211 106.509 123.039 105.909 123.837C105.34 124.637 104.829 125.457 104.265 126.224C103.735 127.016 103.265 127.833 102.752 128.61L102.106 129.834L101.771 130.434L101.512 131.061C100.728 132.665 100.271 134.41 100.167 136.192C100.097 138.073 100.503 139.94 101.347 141.622Z" fill="#E6E6E6"/>
<path d="M99.92 139.158C98.3675 137.646 97.2404 135.752 96.652 133.666C96.0067 131.504 95.9738 129.206 96.557 127.026C96.851 125.931 97.3077 124.886 97.912 123.926C98.4945 122.978 99.2049 122.116 100.023 121.362C101.596 119.888 103.491 118.799 105.557 118.183C104.106 119.592 102.759 121.104 101.527 122.708C100.956 123.467 100.454 124.276 100.027 125.124C99.5996 125.944 99.2642 126.808 99.027 127.701C98.5467 129.516 98.4083 131.405 98.619 133.271C98.8443 135.273 99.28 137.246 99.919 139.157L99.92 139.158Z" fill="#E6E6E6"/>
<path d="M96.1449 137.332L84.0759 125.745L84.5599 137.108L96.1449 137.332Z" fill="#E6E6E6"/>
<path d="M109.339 136.102H77.2681L81.4681 159.928H105.14L109.339 136.102Z" fill="#F5F5F5"/>
<path d="M89.304 136.102H77.269L81.469 159.928H87.793L89.304 136.102Z" fill="#EBEBEB"/>
<path d="M142.608 16.874H77.8721V98.248H142.608V16.874Z" fill="#F0F0F0"/>
<path d="M156.899 16.874H80.3521V98.248H156.899V16.874Z" fill="#F5F5F5"/>
<path d="M86.7649 23.2871V91.8361H150.486V23.2871H86.7649Z" fill="white"/>
<path d="M266.279 235.815H257.484L257.843 106.588H266.638L266.279 235.815Z" fill="white"/>
<path d="M192.865 287.452C275.475 287.452 342.443 283.541 342.443 278.717C342.443 273.893 275.475 269.982 192.865 269.982C110.255 269.982 43.2871 273.893 43.2871 278.717C43.2871 283.541 110.255 287.452 192.865 287.452Z" fill="#F5F5F5"/>
<path d="M282.972 237.275H192.54C191.175 237.286 189.823 237.016 188.567 236.481C187.312 235.947 186.18 235.159 185.243 234.167C184.305 233.175 183.582 232.001 183.119 230.717C182.656 229.433 182.462 228.068 182.55 226.706L192.965 36.8361C193.158 33.9963 194.412 31.3329 196.478 29.3748C198.543 27.4167 201.27 26.307 204.116 26.2661H294.549C295.914 26.2547 297.266 26.5248 298.522 27.0596C299.777 27.5943 300.909 28.3822 301.847 29.374C302.784 30.3658 303.507 31.5403 303.97 32.824C304.434 34.1077 304.627 35.4732 304.539 36.8351L294.127 226.705C293.935 229.546 292.681 232.21 290.614 234.169C288.547 236.127 285.819 237.236 282.972 237.275Z" fill="#CDD6EA"/>
<path d="M277.506 237.275H192.54C191.175 237.286 189.823 237.016 188.567 236.481C187.312 235.947 186.18 235.159 185.243 234.167C184.305 233.175 183.582 232.001 183.119 230.717C182.656 229.433 182.462 228.068 182.55 226.706L192.965 36.8361C193.158 33.9963 194.412 31.3329 196.478 29.3748C198.543 27.4166 201.27 26.307 204.116 26.2661H289.082C290.447 26.2549 291.799 26.5251 293.055 27.0599C294.31 27.5947 295.442 28.3825 296.379 29.3743C297.317 30.3661 298.04 31.5405 298.503 32.8242C298.966 34.1078 299.16 35.4732 299.072 36.8351L288.657 226.705C288.464 229.545 287.21 232.209 285.145 234.167C283.079 236.125 280.352 237.235 277.506 237.276V237.275Z" fill="url(#paint0_linear_132_2)"/>
<path d="M233.83 89.2371H209.43C208.854 89.2421 208.282 89.1282 207.752 88.9025C207.221 88.6768 206.743 88.3442 206.347 87.9253C205.951 87.5065 205.646 87.0104 205.45 86.4682C205.254 85.926 205.173 85.3493 205.21 84.7741C205.29 83.575 205.819 82.4501 206.691 81.6231C207.563 80.7961 208.714 80.3277 209.916 80.3111H234.316C234.892 80.3063 235.463 80.4204 235.993 80.6462C236.524 80.872 237.002 81.2047 237.397 81.6235C237.793 82.0423 238.098 82.5383 238.294 83.0803C238.49 83.6224 238.571 84.199 238.534 84.7741C238.454 85.9728 237.925 87.0974 237.054 87.9244C236.182 88.7513 235.031 89.2199 233.83 89.2371Z" fill="white"/>
<path d="M225.177 90.3762C228.445 87.1962 228.655 82.1101 225.645 79.0162C222.634 75.9223 217.545 75.9921 214.276 79.1721C211.008 82.3521 210.798 87.4382 213.808 90.5321C216.819 93.626 221.908 93.5562 225.177 90.3762Z" fill="#407BFF"/>
<path opacity="0.3" d="M225.177 90.3762C228.445 87.1962 228.655 82.1101 225.645 79.0162C222.634 75.9223 217.545 75.9921 214.276 79.1721C211.008 82.3521 210.798 87.4382 213.808 90.5321C216.819 93.626 221.908 93.5562 225.177 90.3762Z" fill="#FAFAFA"/>
<path d="M206.298 146.339H230.698C231.9 146.322 233.051 145.854 233.923 145.027C234.795 144.2 235.324 143.075 235.404 141.876C235.441 141.301 235.36 140.724 235.164 140.182C234.969 139.64 234.663 139.144 234.267 138.726C233.872 138.307 233.394 137.974 232.864 137.748C232.333 137.522 231.762 137.408 231.186 137.413H206.786C205.584 137.43 204.433 137.898 203.561 138.725C202.689 139.552 202.16 140.677 202.08 141.876C202.043 142.451 202.124 143.028 202.32 143.57C202.516 144.112 202.821 144.608 203.217 145.027C203.612 145.445 204.09 145.778 204.621 146.004C205.151 146.23 205.722 146.344 206.298 146.339Z" fill="white"/>
<path d="M215.564 147.48C218.832 144.3 219.042 139.214 216.032 136.12C213.022 133.026 207.932 133.095 204.663 136.275C201.395 139.455 201.185 144.541 204.195 147.635C207.205 150.729 212.295 150.66 215.564 147.48Z" fill="#407BFF"/>
<path opacity="0.7" d="M215.819 147.48C219.087 144.3 219.297 139.214 216.287 136.12C213.277 133.026 208.187 133.095 204.918 136.275C201.65 139.455 201.44 144.541 204.45 147.635C207.46 150.729 212.55 150.66 215.819 147.48Z" fill="#FAFAFA"/>
<path d="M229.131 174.893H204.731C204.155 174.898 203.584 174.784 203.054 174.558C202.524 174.332 202.046 173.999 201.65 173.58C201.254 173.162 200.949 172.666 200.753 172.124C200.558 171.582 200.476 171.005 200.513 170.43C200.594 169.231 201.123 168.107 201.995 167.28C202.867 166.453 204.018 165.984 205.219 165.966H229.619C230.195 165.961 230.766 166.076 231.297 166.302C231.827 166.528 232.305 166.86 232.701 167.279C233.096 167.698 233.402 168.194 233.597 168.736C233.793 169.278 233.874 169.855 233.837 170.43C233.757 171.629 233.228 172.754 232.356 173.581C231.484 174.408 230.333 174.876 229.131 174.893Z" fill="white"/>
<path d="M215.085 170.43C214.945 172.591 213.994 174.618 212.423 176.108C210.852 177.597 208.776 178.438 206.611 178.463C205.573 178.475 204.544 178.271 203.588 177.866C202.632 177.461 201.771 176.862 201.058 176.107C200.344 175.353 199.795 174.459 199.444 173.482C199.093 172.505 198.948 171.466 199.018 170.43C199.158 168.269 200.109 166.241 201.681 164.752C203.252 163.262 205.328 162.421 207.493 162.396C208.531 162.384 209.561 162.588 210.516 162.993C211.472 163.399 212.334 163.998 213.047 164.752C213.76 165.507 214.309 166.401 214.66 167.378C215.011 168.355 215.156 169.394 215.086 170.43H215.085Z" fill="#407BFF"/>
<path d="M207.864 117.789H232.264C233.466 117.772 234.617 117.304 235.489 116.477C236.361 115.65 236.89 114.525 236.97 113.326C237.007 112.751 236.926 112.174 236.73 111.632C236.534 111.09 236.229 110.594 235.833 110.176C235.438 109.757 234.96 109.424 234.429 109.198C233.899 108.972 233.328 108.858 232.752 108.863H208.352C207.15 108.88 205.999 109.348 205.127 110.175C204.255 111.002 203.726 112.127 203.646 113.326C203.609 113.901 203.69 114.477 203.886 115.019C204.081 115.561 204.386 116.057 204.782 116.476C205.178 116.895 205.655 117.227 206.185 117.453C206.715 117.679 207.286 117.794 207.862 117.789H207.864Z" fill="white"/>
<path d="M203.647 113.326C203.577 114.362 203.722 115.401 204.073 116.378C204.424 117.356 204.973 118.25 205.687 119.004C206.4 119.759 207.261 120.358 208.217 120.763C209.173 121.169 210.203 121.372 211.241 121.36C213.406 121.335 215.481 120.493 217.052 119.003C218.622 117.514 219.573 115.486 219.713 113.326C219.783 112.29 219.638 111.251 219.287 110.274C218.936 109.296 218.387 108.402 217.674 107.648C216.96 106.893 216.099 106.294 215.143 105.889C214.187 105.483 213.157 105.28 212.119 105.292C209.954 105.317 207.879 106.159 206.309 107.649C204.738 109.138 203.787 111.166 203.647 113.326Z" fill="#407BFF"/>
<path opacity="0.7" d="M203.647 113.326C203.577 114.362 203.722 115.401 204.073 116.378C204.424 117.356 204.973 118.25 205.687 119.004C206.4 119.759 207.261 120.358 208.217 120.763C209.173 121.169 210.203 121.372 211.241 121.36C213.406 121.335 215.481 120.493 217.052 119.003C218.622 117.514 219.573 115.486 219.713 113.326C219.783 112.29 219.638 111.251 219.287 110.274C218.936 109.296 218.387 108.402 217.674 107.648C216.96 106.893 216.099 106.294 215.143 105.889C214.187 105.483 213.157 105.28 212.119 105.292C209.954 105.317 207.879 106.159 206.309 107.649C204.738 109.138 203.787 111.166 203.647 113.326Z" fill="#FAFAFA"/>
<path d="M278.01 169.09H246.41C246.18 169.092 245.951 169.047 245.739 168.956C245.527 168.866 245.336 168.733 245.177 168.565C245.019 168.398 244.897 168.199 244.819 167.983C244.741 167.766 244.708 167.535 244.723 167.305C244.755 166.825 244.967 166.376 245.316 166.045C245.665 165.714 246.125 165.527 246.606 165.52H278.206C278.436 165.518 278.665 165.564 278.877 165.654C279.089 165.745 279.28 165.878 279.438 166.045C279.597 166.213 279.719 166.411 279.797 166.628C279.875 166.845 279.908 167.075 279.893 167.305C279.86 167.785 279.649 168.234 279.3 168.565C278.951 168.896 278.491 169.083 278.01 169.09Z" fill="white"/>
<path d="M261.684 175.339H246.071C245.841 175.341 245.612 175.295 245.4 175.205C245.188 175.115 244.997 174.981 244.839 174.814C244.681 174.646 244.558 174.448 244.48 174.231C244.402 174.015 244.369 173.784 244.384 173.554C244.417 173.074 244.628 172.624 244.977 172.294C245.326 171.963 245.786 171.775 246.267 171.768H261.879C262.11 171.766 262.338 171.812 262.55 171.902C262.762 171.993 262.954 172.126 263.112 172.293C263.27 172.461 263.393 172.659 263.471 172.876C263.549 173.093 263.582 173.324 263.567 173.554C263.535 174.034 263.323 174.483 262.974 174.814C262.625 175.145 262.165 175.332 261.684 175.339Z" fill="white"/>
<path d="M287.131 86.1141H250.967C250.486 86.1208 250.026 86.308 249.677 86.6388C249.328 86.9695 249.116 87.4194 249.083 87.8991C249.068 88.1292 249.101 88.3598 249.179 88.5767C249.258 88.7935 249.38 88.9919 249.538 89.1594C249.697 89.3269 249.888 89.46 250.1 89.5502C250.312 89.6405 250.541 89.6861 250.771 89.6841H286.935C287.416 89.6774 287.876 89.4901 288.225 89.1593C288.574 88.8286 288.786 88.3787 288.818 87.8991C288.833 87.6691 288.8 87.4384 288.722 87.2216C288.644 87.0047 288.522 86.8063 288.364 86.6388C288.205 86.4713 288.014 86.3382 287.802 86.2479C287.59 86.1576 287.362 86.1121 287.131 86.1141Z" fill="white"/>
<path d="M275.769 79.865H251.311C250.831 79.8719 250.37 80.0594 250.021 80.39C249.672 80.7207 249.461 81.1705 249.428 81.65C249.414 81.8794 249.447 82.1092 249.525 82.3253C249.603 82.5414 249.725 82.7391 249.883 82.9062C250.04 83.0732 250.231 83.206 250.442 83.2963C250.654 83.3866 250.881 83.4324 251.111 83.431H275.57C276.051 83.4243 276.511 83.237 276.86 82.9063C277.209 82.5755 277.421 82.1256 277.453 81.646C277.467 81.4166 277.434 81.1867 277.356 80.9706C277.278 80.7545 277.156 80.5568 276.998 80.3898C276.84 80.2228 276.649 80.09 276.438 79.9998C276.227 79.9095 275.999 79.8636 275.769 79.865Z" fill="white"/>
<path d="M268.096 111.987H249.548C249.317 111.989 249.089 111.943 248.877 111.853C248.665 111.763 248.473 111.63 248.315 111.462C248.157 111.295 248.034 111.096 247.956 110.88C247.878 110.663 247.845 110.432 247.86 110.202C247.893 109.723 248.105 109.273 248.453 108.942C248.802 108.612 249.262 108.424 249.743 108.417H268.292C268.522 108.415 268.751 108.461 268.963 108.551C269.175 108.642 269.366 108.775 269.524 108.942C269.683 109.11 269.805 109.308 269.883 109.525C269.961 109.741 269.994 109.972 269.979 110.202C269.946 110.682 269.735 111.131 269.386 111.462C269.037 111.793 268.577 111.98 268.096 111.987Z" fill="white"/>
<path d="M285.712 111.987H274.787C274.556 111.989 274.327 111.944 274.115 111.854C273.903 111.764 273.711 111.63 273.552 111.463C273.394 111.295 273.271 111.097 273.193 110.879C273.115 110.662 273.082 110.431 273.097 110.201C273.13 109.722 273.342 109.272 273.69 108.941C274.039 108.611 274.5 108.423 274.98 108.416H285.905C286.136 108.414 286.364 108.46 286.576 108.55C286.788 108.641 286.979 108.774 287.137 108.941C287.296 109.109 287.418 109.307 287.496 109.524C287.574 109.741 287.607 109.971 287.592 110.201C287.56 110.681 287.349 111.13 287 111.461C286.652 111.792 286.192 111.98 285.711 111.987H285.712Z" fill="white"/>
<path d="M273.663 118.235H249.204C248.973 118.237 248.745 118.192 248.533 118.101C248.321 118.011 248.13 117.878 247.971 117.71C247.813 117.543 247.691 117.344 247.613 117.128C247.535 116.911 247.502 116.68 247.517 116.45C247.549 115.97 247.761 115.521 248.11 115.19C248.459 114.859 248.919 114.672 249.4 114.665H273.859C274.089 114.663 274.318 114.709 274.53 114.799C274.742 114.889 274.933 115.022 275.092 115.19C275.25 115.357 275.372 115.556 275.45 115.773C275.528 115.989 275.561 116.22 275.546 116.45C275.514 116.93 275.302 117.38 274.953 117.71C274.604 118.041 274.144 118.228 273.663 118.235Z" fill="white"/>
<path d="M243.01 200.384H201.368C201.045 200.387 200.725 200.323 200.428 200.197C200.131 200.07 199.864 199.884 199.642 199.649C199.42 199.415 199.25 199.137 199.14 198.833C199.031 198.529 198.986 198.206 199.007 197.884C199.052 197.213 199.348 196.582 199.836 196.119C200.324 195.656 200.969 195.393 201.642 195.384H243.282C243.605 195.381 243.925 195.445 244.222 195.572C244.519 195.698 244.786 195.885 245.008 196.119C245.229 196.354 245.4 196.632 245.509 196.935C245.619 197.239 245.664 197.562 245.643 197.884C245.598 198.555 245.303 199.185 244.815 199.648C244.327 200.112 243.683 200.374 243.01 200.384Z" fill="white"/>
<path d="M280.151 200.384H254.583C254.26 200.387 253.94 200.323 253.644 200.197C253.347 200.07 253.079 199.884 252.858 199.649C252.636 199.414 252.465 199.136 252.356 198.833C252.247 198.529 252.202 198.206 252.223 197.884C252.268 197.213 252.563 196.583 253.051 196.119C253.539 195.656 254.184 195.394 254.857 195.384H280.427C280.75 195.381 281.069 195.445 281.366 195.572C281.663 195.698 281.931 195.885 282.153 196.119C282.374 196.354 282.545 196.632 282.654 196.935C282.764 197.239 282.809 197.562 282.788 197.884C282.743 198.556 282.447 199.186 281.958 199.65C281.47 200.113 280.824 200.375 280.151 200.384Z" fill="white"/>
<path d="M232.589 209.121H200.889C200.566 209.124 200.247 209.06 199.95 208.933C199.653 208.807 199.385 208.621 199.164 208.386C198.942 208.151 198.771 207.873 198.662 207.57C198.553 207.266 198.508 206.943 198.529 206.621C198.574 205.95 198.87 205.32 199.358 204.856C199.846 204.393 200.49 204.131 201.163 204.121H232.869C233.192 204.118 233.512 204.182 233.809 204.309C234.106 204.435 234.373 204.622 234.595 204.856C234.816 205.091 234.987 205.369 235.096 205.672C235.206 205.976 235.251 206.299 235.23 206.621C235.185 207.294 234.889 207.925 234.399 208.388C233.909 208.851 233.263 209.113 232.589 209.121Z" fill="white"/>
<path d="M267.023 217.862H200.409C200.086 217.865 199.766 217.801 199.469 217.675C199.172 217.548 198.905 217.362 198.683 217.127C198.461 216.893 198.291 216.615 198.181 216.311C198.072 216.007 198.027 215.684 198.048 215.362C198.093 214.691 198.389 214.061 198.877 213.597C199.365 213.134 200.01 212.872 200.683 212.862H267.297C267.62 212.859 267.94 212.923 268.236 213.05C268.533 213.176 268.801 213.363 269.022 213.597C269.244 213.832 269.415 214.11 269.524 214.413C269.633 214.717 269.678 215.04 269.657 215.362C269.613 216.034 269.317 216.664 268.829 217.127C268.341 217.59 267.696 217.853 267.023 217.862Z" fill="white"/>
<path d="M258.54 143.219H247.834C247.353 143.226 246.893 143.414 246.544 143.744C246.195 144.075 245.983 144.525 245.951 145.005C245.937 145.235 245.97 145.465 246.048 145.682C246.127 145.898 246.249 146.096 246.407 146.263C246.566 146.431 246.757 146.563 246.969 146.653C247.181 146.743 247.409 146.789 247.639 146.787H258.34C258.821 146.78 259.281 146.593 259.63 146.262C259.979 145.931 260.19 145.482 260.223 145.002C260.238 144.773 260.205 144.543 260.127 144.326C260.049 144.11 259.927 143.912 259.769 143.745C259.611 143.578 259.421 143.445 259.209 143.354C258.998 143.264 258.77 143.218 258.54 143.219Z" fill="white"/>
<path d="M277.643 143.219H265.228C264.747 143.226 264.287 143.414 263.938 143.744C263.589 144.075 263.377 144.525 263.345 145.005C263.33 145.235 263.363 145.466 263.441 145.682C263.519 145.899 263.641 146.097 263.8 146.265C263.958 146.432 264.149 146.566 264.361 146.656C264.573 146.746 264.802 146.792 265.032 146.79H277.445C277.926 146.783 278.386 146.595 278.735 146.265C279.083 145.934 279.295 145.484 279.328 145.005C279.343 144.775 279.31 144.545 279.232 144.328C279.154 144.111 279.032 143.913 278.874 143.745C278.716 143.578 278.525 143.445 278.313 143.354C278.102 143.264 277.873 143.218 277.643 143.219Z" fill="white"/>
<path d="M272.638 136.971H248.179C247.698 136.978 247.238 137.165 246.889 137.496C246.54 137.826 246.328 138.276 246.296 138.756C246.281 138.986 246.314 139.217 246.392 139.433C246.47 139.65 246.592 139.849 246.75 140.016C246.909 140.184 247.1 140.317 247.312 140.407C247.524 140.497 247.753 140.543 247.983 140.541H272.438C272.919 140.534 273.379 140.347 273.728 140.016C274.077 139.686 274.289 139.236 274.321 138.756C274.336 138.526 274.304 138.296 274.226 138.079C274.148 137.863 274.026 137.665 273.868 137.497C273.71 137.33 273.519 137.197 273.308 137.106C273.096 137.016 272.868 136.97 272.638 136.971Z" fill="white"/>
<path d="M137.294 91.1661C134.773 93.2661 132.168 95.5331 129.768 97.8201C128.568 98.9711 127.388 100.141 126.306 101.335C125.251 102.465 124.286 103.676 123.419 104.955L123.273 105.168L123.196 105.291C123.135 105.39 123.081 105.493 123.035 105.6C122.915 105.878 122.81 106.163 122.722 106.453C122.514 107.156 122.354 107.872 122.243 108.596C121.999 110.205 121.843 111.826 121.776 113.452C121.614 116.789 121.616 120.263 121.676 123.668L118.069 124.208C117.161 120.717 116.542 117.158 116.217 113.566C116.044 111.705 116.001 109.833 116.089 107.966C116.141 106.952 116.261 105.942 116.449 104.944C116.559 104.385 116.706 103.833 116.89 103.293C116.992 102.99 117.11 102.693 117.243 102.403L117.463 101.94C117.535 101.797 117.59 101.709 117.655 101.592C118.598 99.8861 119.699 98.2724 120.943 96.7721C122.1 95.3323 123.329 93.9519 124.626 92.6361C127.162 90.0334 129.874 87.6077 132.742 85.3761L137.294 91.1661Z" fill="#B55B52"/>
<path d="M135.974 81.9171C132.022 84.2601 126.045 90.2491 126.045 90.2491L133.374 99.0441C133.374 99.0441 143.765 92.8141 145.023 89.3751C147.144 83.5931 139.706 79.7041 135.974 81.9171Z" fill="#FFC091"/>
<path d="M121.539 122.364L122.43 127.591L117.58 126.891C117.58 126.891 116.586 123.342 119.095 122.118L121.539 122.364Z" fill="#B55B52"/>
<path d="M120.645 130.769L116.275 129.411L117.58 126.888L122.43 127.588L120.645 130.769Z" fill="#B55B52"/>
<path d="M165.338 63.469C165.346 64 165.638 64.434 165.987 64.439C166.336 64.444 166.616 64.018 166.609 63.487C166.602 62.956 166.309 62.522 165.96 62.517C165.611 62.512 165.331 62.938 165.338 63.469Z" fill="#263238"/>
<path d="M165.806 62.5441L167.09 62.1941C167.09 62.1941 166.442 63.1811 165.806 62.5441Z" fill="#263238"/>
<path d="M165.797 63.99C166.293 65.2111 166.953 66.3595 167.757 67.404C167.482 67.5939 167.169 67.7217 166.839 67.7785C166.51 67.8354 166.172 67.8198 165.849 67.733L165.797 63.99Z" fill="#A02724"/>
<path d="M166.012 59.938C165.961 59.9476 165.908 59.9442 165.858 59.9281C165.481 59.7928 165.078 59.7465 164.68 59.7929C164.282 59.8392 163.9 59.9768 163.564 60.195C163.531 60.22 163.494 60.2382 163.454 60.2487C163.414 60.2592 163.372 60.2617 163.332 60.2562C163.291 60.2506 163.251 60.237 163.216 60.2163C163.18 60.1955 163.149 60.1679 163.124 60.1351C163.099 60.1022 163.081 60.0648 163.07 60.0249C163.06 59.985 163.057 59.9435 163.063 59.9026C163.069 59.8618 163.082 59.8224 163.103 59.7868C163.124 59.7512 163.151 59.72 163.184 59.695C163.601 59.4153 164.077 59.2366 164.575 59.1733C165.073 59.1099 165.579 59.1636 166.052 59.33C166.119 59.3516 166.176 59.3947 166.215 59.4526C166.254 59.5105 166.273 59.5798 166.268 59.6495C166.263 59.7191 166.235 59.7852 166.188 59.8372C166.142 59.8891 166.079 59.9239 166.01 59.936L166.012 59.938Z" fill="#263238"/>
<path d="M149.621 69.129C149.975 73.115 148.64 79.652 145.628 81.876C145.628 81.876 147.898 86.076 155.168 87.045C163.162 88.118 159.406 83.618 159.406 83.618C155.153 81.998 155.606 78.8 156.687 75.885L149.621 69.129Z" fill="#B55B52"/>
<path d="M163.819 86.722C167.625 87.763 171.619 88.756 175.545 89.637C177.518 90.068 179.496 90.455 181.47 90.837C183.446 91.182 185.424 91.531 187.395 91.784L188.135 91.884L188.635 91.935C189.023 91.9505 189.411 91.9455 189.799 91.92C190.694 91.8608 191.583 91.7398 192.461 91.558C194.371 91.1654 196.26 90.6704 198.117 90.075C201.917 88.882 205.782 87.452 209.549 85.968L211.262 89.188C207.705 91.5139 203.973 93.5588 200.098 95.304C198.1 96.2069 196.045 96.9752 193.945 97.604C192.82 97.9389 191.673 98.1965 190.513 98.375C189.873 98.4634 189.229 98.5172 188.584 98.536C188.244 98.536 187.859 98.526 187.539 98.512L186.739 98.455C182.493 98.1583 178.269 97.5959 174.093 96.771C169.918 95.9933 165.789 94.9919 161.722 93.771L163.819 86.722Z" fill="#B55B52"/>
<path d="M208.58 87.2891L209.697 83.4971L213.807 85.0441C213.807 85.0441 212.865 90.7371 209.342 89.1641L208.58 87.2891Z" fill="#B55B52"/>
<path d="M212.078 80.9861L216.278 81.4591L213.809 85.0451L209.699 83.5021L212.078 80.9861Z" fill="#B55B52"/>
<path d="M137.815 271.494L144.428 271.982L146.392 256.797L139.78 256.309L137.815 271.494Z" fill="#B55B52"/>
<path d="M89.061 242.06L93.549 247.041L106.09 238.373L101.602 233.392L89.061 242.06Z" fill="#B55B52"/>
<path d="M96.873 249.865C96.7921 249.863 96.7119 249.849 96.635 249.824C95.835 249.565 95.284 248.078 95.029 247.216C95.0187 247.186 95.0177 247.154 95.0263 247.124C95.0349 247.093 95.0526 247.066 95.0771 247.046C95.1015 247.026 95.1315 247.014 95.163 247.012C95.1944 247.01 95.2259 247.017 95.253 247.033C95.495 247.162 97.62 248.316 97.691 249.163C97.6987 249.256 97.682 249.349 97.6426 249.434C97.6031 249.518 97.5422 249.591 97.466 249.644C97.2996 249.784 97.0902 249.862 96.873 249.865ZM95.447 247.5C95.828 248.639 96.296 249.386 96.731 249.527C96.8246 249.553 96.9235 249.555 97.018 249.533C97.1126 249.51 97.1997 249.463 97.271 249.397C97.305 249.375 97.3323 249.344 97.3499 249.308C97.3675 249.271 97.3748 249.23 97.371 249.19C97.342 248.742 96.285 247.984 95.451 247.5H95.447Z" fill="#407BFF"/>
<path d="M97.1269 247.803C96.4221 247.789 95.7292 247.619 95.0989 247.303C95.075 247.289 95.0552 247.269 95.0415 247.245C95.0279 247.221 95.021 247.194 95.0215 247.167C95.022 247.139 95.0299 247.112 95.0444 247.088C95.0589 247.065 95.0795 247.046 95.1039 247.033C95.1719 246.994 96.8039 246.089 97.7039 246.401C97.8219 246.439 97.93 246.502 98.0206 246.586C98.1112 246.671 98.182 246.774 98.2279 246.889C98.2897 246.999 98.3115 247.126 98.2898 247.25C98.2681 247.374 98.2042 247.487 98.1089 247.569C97.8169 247.755 97.4704 247.837 97.1259 247.801L97.1269 247.803ZM95.5269 247.17C96.2737 247.517 97.1228 247.575 97.9099 247.333C97.9679 247.284 98.0229 247.203 97.9429 247.011C97.9134 246.938 97.8679 246.872 97.8098 246.819C97.7516 246.765 97.6824 246.725 97.6069 246.702C96.8811 246.637 96.1531 246.801 95.5249 247.17H95.5269Z" fill="#407BFF"/>
<path d="M95.561 246.31L91.861 239.739C91.8013 239.626 91.7022 239.538 91.5823 239.492C91.4625 239.446 91.3301 239.446 91.21 239.491L85.741 241.591C85.6046 241.652 85.4826 241.741 85.383 241.852C85.2834 241.963 85.2084 242.095 85.163 242.237C85.1176 242.379 85.1027 242.529 85.1195 242.678C85.1362 242.826 85.1841 242.969 85.26 243.098C86.59 245.368 87.343 246.398 88.973 249.287C89.973 251.061 91.519 254.939 92.705 257.496C93.862 259.996 96.405 259.05 96.137 257.882C95.2283 254.488 95.1018 250.932 95.767 247.482C95.8347 247.079 95.7619 246.666 95.561 246.31Z" fill="#263238"/>
<path d="M147.299 272.196C146.601 272.182 145.905 272.103 145.222 271.959C145.189 271.954 145.158 271.939 145.135 271.915C145.111 271.892 145.096 271.861 145.091 271.828C145.087 271.795 145.093 271.761 145.109 271.732C145.125 271.703 145.15 271.68 145.181 271.666C145.481 271.512 148.167 270.16 148.961 270.612C149.036 270.654 149.099 270.714 149.143 270.787C149.188 270.86 149.212 270.943 149.215 271.029C149.23 271.171 149.21 271.314 149.158 271.446C149.106 271.579 149.022 271.697 148.915 271.79C148.438 272.104 147.868 272.247 147.299 272.196ZM145.747 271.733C147.206 271.975 148.293 271.911 148.704 271.551C148.776 271.49 148.832 271.411 148.867 271.323C148.902 271.235 148.914 271.14 148.904 271.046C148.905 271.012 148.897 270.979 148.88 270.95C148.863 270.921 148.839 270.897 148.809 270.881C148.372 270.64 146.85 271.216 145.751 271.737L145.747 271.733Z" fill="#407BFF"/>
<path d="M145.253 271.962C145.231 271.962 145.209 271.957 145.189 271.948C145.169 271.939 145.151 271.926 145.136 271.91C145.122 271.893 145.11 271.874 145.104 271.853C145.097 271.832 145.095 271.81 145.097 271.788C145.109 271.67 145.415 268.966 146.897 268.966C146.94 268.966 146.983 268.969 147.026 268.973C147.454 269.016 147.577 269.233 147.605 269.407C147.725 270.155 146.125 271.588 145.318 271.947C145.298 271.957 145.276 271.962 145.253 271.962ZM146.901 269.28C145.947 269.28 145.571 270.851 145.454 271.523C146.278 271.032 147.366 269.903 147.295 269.457C147.289 269.422 147.271 269.314 146.995 269.285C146.965 269.285 146.935 269.285 146.904 269.285L146.901 269.28Z" fill="#407BFF"/>
<path d="M144.841 271.039H137.409C137.28 271.037 137.154 271.082 137.055 271.165C136.956 271.248 136.89 271.364 136.869 271.491L135.869 277.372C135.848 277.519 135.86 277.669 135.902 277.811C135.944 277.953 136.017 278.085 136.115 278.196C136.213 278.308 136.334 278.397 136.469 278.458C136.605 278.519 136.752 278.549 136.9 278.548C139.492 278.503 140.745 278.348 144.014 278.348C146.025 278.348 150.179 278.557 152.956 278.557C155.672 278.557 155.956 275.811 154.801 275.562C149.645 274.446 147.644 272.909 145.935 271.442C145.63 271.182 145.242 271.039 144.841 271.039Z" fill="#263238"/>
<path opacity="0.2" d="M146.392 256.8L145.302 265.239L138.765 264.144L139.776 256.312L146.392 256.8Z" fill="black"/>
<path opacity="0.2" d="M101.597 233.393L106.088 238.376L100.898 241.96L96.2471 237.089L101.597 233.393Z" fill="black"/>
<path d="M134.484 121.718C139.661 122.412 150.642 123.887 161.262 125.318C171.64 87.755 168.577 86.736 168.577 86.736C166.571 85.7982 164.51 84.9827 162.405 84.294C162.274 84.25 162.152 84.217 162.039 84.179C160.31 83.66 159.948 83.588 157.639 83.06C153.685 82.366 150.009 81.826 145.48 81.432C145.188 81.406 144.898 81.38 144.615 81.363C143.795 81.308 142.984 81.27 142.2 81.24C141.671 81.211 141.144 81.208 140.642 81.203C140.047 81.203 139.469 81.203 138.926 81.209C138.617 81.209 138.318 81.216 138.026 81.221C137.51 81.2314 137.001 81.3497 136.534 81.5684C136.066 81.7871 135.649 82.1012 135.31 82.4907C134.971 82.8802 134.717 83.3364 134.565 83.8298C134.413 84.3233 134.365 84.8432 134.426 85.356C136.711 105.109 135.984 111.609 134.484 121.718Z" fill="#FFC091"/>
<path opacity="0.2" d="M162.033 95.2361C162.215 96.9771 166.245 100.164 167.633 99.3051C168.038 97.2221 168.327 95.4781 168.533 94.0261C166.499 93.8801 162.538 91.6471 162.033 95.2361Z" fill="black"/>
<path d="M157.662 86.4691C157.468 80.3231 172.427 87.0981 175.862 88.6291L172.062 98.9491C172.062 98.9491 167.056 98.7751 163.862 96.9351C162.051 95.8315 160.538 94.3 159.457 92.4751C158.376 90.6503 157.76 88.5879 157.662 86.4691Z" fill="#FFC091"/>
<path d="M147.366 61.7581C147.861 68.2831 147.929 71.0511 151.3 74.4441C156.375 79.5441 164.355 77.7441 165.837 71.2541C167.172 65.4161 166.137 55.7261 159.654 53.0421C158.265 52.422 156.739 52.1745 155.226 52.324C153.712 52.4735 152.264 53.0149 151.023 53.8947C149.783 54.7745 148.793 55.9624 148.152 57.3413C147.51 58.7202 147.239 60.2425 147.365 61.7581H147.366Z" fill="#B55B52"/>
<path d="M147.918 54.862C141.361 53.223 141.157 58.755 141.293 61.624C141.429 64.493 136.613 65.915 136.613 69.546C136.613 74.281 140.186 77.106 131.497 78.54C124.141 79.753 121.875 88.94 132.754 94.314C144.793 100.259 162.964 91.895 160.754 83.94C157.343 71.662 163.454 71.705 162.76 64.853C162.26 59.867 166.976 59.619 165.282 55.465C163.062 50.014 147.339 45.231 147.918 54.862Z" fill="#263238"/>
<path d="M140.328 64.064C139.428 59.319 139.92 56.164 141.794 54.692C144.209 52.792 147.922 54.441 148.079 54.512L147.76 55.212C147.725 55.196 144.311 53.686 142.269 55.297C140.641 56.58 140.242 59.481 141.086 63.917L140.328 64.064Z" fill="#263238"/>
<path d="M132.912 77.202C131.222 77.1475 129.553 76.8095 127.975 76.202L128.261 75.4861C128.313 75.5081 133.515 77.5471 135.918 75.5551C137.091 74.5821 137.425 72.755 136.911 70.129L137.669 69.9821C138.241 72.9081 137.817 74.982 136.409 76.149C135.4 76.8951 134.162 77.2664 132.909 77.1991L132.912 77.202Z" fill="#263238"/>
<path d="M160.998 64.3911C160.936 65.6075 161.25 66.8137 161.898 67.845C162.791 69.3 164.005 69.0341 164.398 67.7961C164.754 66.6831 164.717 64.5841 163.512 63.5241C162.326 62.4751 161.12 63.0321 160.998 64.3911Z" fill="#B55B52"/>
<path d="M154.19 124.365C154.19 124.365 143.79 168.314 138.933 193.56C133.806 220.195 103.446 241.925 103.446 241.925L96.7791 235.066C96.7791 235.066 116.33 217.957 121.352 193.089C131.545 142.605 124.645 132.435 134.483 121.723L154.19 124.365Z" fill="#263238"/>
<path d="M104.014 242.914L95.6899 234.351L98.0339 231.836L107.697 240.347L104.014 242.914Z" fill="#FFC091"/>
<path opacity="0.2" d="M148.665 133.918C140.58 140.938 141.455 165.843 142.301 177.068C145.695 161.11 149.771 143.338 152.161 133.053C151.309 132.419 150.151 132.628 148.665 133.918Z" fill="black"/>
<path d="M160.861 125.337C160.861 125.337 165.539 177.511 162.987 197.412C160.333 218.112 146.825 263.152 146.825 263.152L137.287 261.918C137.287 261.918 145.035 217.291 146.413 196.795C147.913 174.452 141.252 122.705 141.252 122.705L160.861 125.337Z" fill="#263238"/>
<path d="M148.854 263.697L135.26 261.938L135.469 257.926L150.217 259.356L148.854 263.697Z" fill="#FFC091"/>
<path d="M134.247 120.106L132.787 122.324C132.674 122.496 132.874 122.71 133.187 122.755L161.268 126.524C161.509 126.556 161.722 126.465 161.753 126.317L162.247 123.969C162.282 123.806 162.087 123.639 161.823 123.603L134.705 119.964C134.623 119.945 134.537 119.949 134.457 119.973C134.376 119.998 134.304 120.044 134.247 120.106Z" fill="#407BFF"/>
<path opacity="0.3" d="M134.247 120.106L132.787 122.324C132.674 122.496 132.874 122.71 133.187 122.755L161.268 126.524C161.509 126.556 161.722 126.465 161.753 126.317L162.247 123.969C162.282 123.806 162.087 123.639 161.823 123.603L134.705 119.964C134.623 119.945 134.537 119.949 134.457 119.973C134.376 119.998 134.304 120.044 134.247 120.106Z" fill="#FFC091"/>
<path d="M137.57 123.605L136.843 123.505C136.699 123.486 136.596 123.397 136.615 123.305L137.284 120.259C137.304 120.17 137.438 120.113 137.584 120.132L138.311 120.232C138.455 120.251 138.558 120.34 138.539 120.432L137.87 123.478C137.848 123.567 137.714 123.624 137.57 123.605Z" fill="#263238"/>
<path d="M155.912 126.11L155.186 126.01C155.041 125.991 154.939 125.902 154.958 125.81L155.627 122.764C155.646 122.675 155.781 122.617 155.927 122.637L156.654 122.737C156.798 122.756 156.901 122.845 156.881 122.937L156.212 125.983C156.195 126.072 156.057 126.129 155.912 126.11Z" fill="#263238"/>
<g clip-path="url(#clip1_132_2)">
<path fill-rule="evenodd" clip-rule="evenodd" d="M212.957 42H223.913L212.957 52H223.913L212.957 62H202L212.957 52H202L212.957 42Z" fill="url(#paint1_linear_132_2)"/>
<path d="M233.043 58.2545L237.791 45.5272H240.512L245.278 58.2545H242.393L241.407 55.6545H236.677L235.71 58.2545H233.043ZM237.517 53.4H240.585L239.051 48.9818L237.517 53.4Z" fill="#272657"/>
<path d="M246.747 58.2545V45.5272H249.468V58.2545H246.747Z" fill="#272657"/>
<path d="M252.227 58.2545V45.5272H254.948V50.5818H260.426V45.5272H263.147V58.2545H260.426V52.8363H254.948V58.2545H252.227Z" fill="#272657"/>
<path d="M268.676 58.4727C267.556 58.4727 266.71 58.1575 266.138 57.5273C265.565 56.8848 265.279 55.897 265.279 54.5636V48.6182H267.671V54.2364C267.671 54.9636 267.812 55.5151 268.091 55.8909C268.384 56.2545 268.871 56.4364 269.552 56.4364C270.039 56.4364 270.429 56.3334 270.721 56.1273C271.025 55.9212 271.251 55.6545 271.397 55.3273C271.543 55 271.616 54.6364 271.616 54.2364V48.6182H274.026V58.2545H271.798V56.8182C271.567 57.2666 271.196 57.6545 270.685 57.9818C270.185 58.3091 269.516 58.4727 268.676 58.4727Z" fill="#272657"/>
<path d="M281.234 58.4727C280.431 58.4727 279.767 58.3091 279.244 57.9818C278.72 57.6545 278.337 57.2727 278.094 56.8363V58.2545H275.866V45.5272H278.258V49.9454C278.562 49.4848 278.964 49.1151 279.463 48.8363C279.974 48.5454 280.565 48.3999 281.234 48.3999C282.525 48.3999 283.529 48.7999 284.247 49.5999C284.978 50.3878 285.343 51.5757 285.343 53.1636V53.5272C285.343 54.6302 285.173 55.5515 284.832 56.2909C284.503 57.0181 284.034 57.5636 283.426 57.9272C282.817 58.2909 282.087 58.4727 281.234 58.4727ZM280.668 56.4363C281.301 56.4363 281.831 56.2 282.257 55.7272C282.683 55.2423 282.896 54.5091 282.896 53.5272V53.1636C282.896 52.2545 282.689 51.5757 282.275 51.1272C281.874 50.6666 281.338 50.4363 280.668 50.4363C280.206 50.4363 279.792 50.5272 279.427 50.709C279.061 50.8787 278.775 51.1393 278.568 51.4909C278.361 51.8302 278.258 52.2666 278.258 52.8V53.8909C278.258 54.4606 278.355 54.9393 278.55 55.3272C278.757 55.703 279.043 55.9818 279.408 56.1636C279.774 56.3454 280.194 56.4363 280.668 56.4363Z" fill="#272657"/>
</g>
</g>
<defs>
<linearGradient id="paint0_linear_132_2" x1="240.811" y1="26.2657" x2="206.987" y2="194.63" gradientUnits="userSpaceOnUse">
<stop stop-color="#E5E6EF"/>
<stop offset="1" stop-color="white"/>
</linearGradient>
<linearGradient id="paint1_linear_132_2" x1="221.667" y1="43.6" x2="214.215" y2="62.4964" gradientUnits="userSpaceOnUse">
<stop stop-color="#6C98A2"/>
<stop offset="0.536458" stop-color="#7179C7"/>
<stop offset="1" stop-color="#8E3BC6"/>
</linearGradient>
<clipPath id="clip0_132_2">
<rect width="385.731" height="287.453" fill="white"/>
</clipPath>
<clipPath id="clip1_132_2">
<rect width="84" height="20" fill="white" transform="translate(202 42)"/>
</clipPath>
</defs>
</svg>
