<svg xmlns="http://www.w3.org/2000/svg" width="92" height="25" viewBox="0 0 92 25" fill="none"><path fill-rule="evenodd" clip-rule="evenodd" d="M12 1.5H24L12 12.5H24L12 23.5H0L12 12.5H0L12 1.5Z" fill="url(#paint0_linear_1_7294)"></path><path d="M34.07 18.5H35.918C36.324 17.45 36.716 16.414 37.122 15.364H41.462C41.868 16.414 42.288 17.45 42.694 18.5H44.57L40.342 7.58H38.312L34.07 18.5ZM37.752 13.67L39.292 9.694H39.32C39.866 11.178 40.384 12.508 40.832 13.67H37.752ZM45.8964 18.5H47.6604V7.58H45.8964V18.5ZM58.5777 18.738C61.0697 18.738 63.0017 17.38 63.8277 14.804L62.2037 14.244C61.6717 15.98 60.3977 17.072 58.6197 17.072C56.8137 17.072 54.8117 15.924 54.8117 13.11C54.8117 10.576 56.4217 9.022 58.4657 9.022C60.0617 9.022 61.2377 9.96 61.8117 11.374L63.4357 10.716C62.6937 8.602 60.7337 7.356 58.4937 7.356C55.5677 7.356 52.9637 9.442 52.9637 13.026C52.9637 16.442 55.3157 18.738 58.5777 18.738ZM68.5314 18.738C70.8834 18.738 72.5074 17.044 72.5074 14.622C72.5074 12.2 70.8834 10.492 68.5314 10.492C66.1794 10.492 64.5414 12.2 64.5414 14.622C64.5414 17.044 66.1794 18.738 68.5314 18.738ZM66.2774 14.622C66.2774 13.124 67.2014 12.06 68.5314 12.06C69.8614 12.06 70.7854 13.124 70.7854 14.622C70.7854 16.106 69.8614 17.17 68.5314 17.17C67.2014 17.17 66.2774 16.106 66.2774 14.622ZM77.1352 18.738C78.1572 18.738 79.1652 18.304 79.7532 17.338H79.7812C79.7672 17.688 79.8232 18.038 79.9352 18.5H81.5872C81.4332 17.884 81.3352 17.366 81.3352 16.064V7.3H79.6692V11.892H79.6412C79.1512 11.066 78.2832 10.492 77.1212 10.492C75.1612 10.492 73.5792 12.06 73.5792 14.608C73.5792 17.002 74.9792 18.738 77.1352 18.738ZM75.3012 14.608C75.3012 13.124 76.2112 12.06 77.4852 12.06C78.7312 12.06 79.7112 13.096 79.7112 14.594C79.7112 16.092 78.7592 17.156 77.4852 17.156C76.1972 17.156 75.3012 16.078 75.3012 14.608ZM86.9064 18.738C88.6704 18.738 90.0144 17.772 90.5464 16.4L88.9924 15.784C88.6284 16.68 87.8724 17.254 86.9064 17.254C85.6884 17.254 84.7224 16.442 84.5964 15.056H90.4904V14.566C90.4904 11.626 88.6004 10.492 86.7944 10.492C84.5264 10.492 82.9164 12.242 82.9164 14.636C82.9164 17.114 84.6244 18.738 86.9064 18.738ZM84.6804 13.866C84.8764 12.718 85.6324 11.92 86.7804 11.92C87.7464 11.92 88.6984 12.452 88.8104 13.866H84.6804Z" fill="url(#paint1_linear_1_7294)"></path><defs><linearGradient id="paint0_linear_1_7294" x1="21.54" y1="3.26" x2="13.3171" y2="24.0217" gradientUnits="userSpaceOnUse"><stop stop-color="#6C98A2"></stop><stop offset="0.536458" stop-color="#7179C7"></stop><stop offset="1" stop-color="#8E3BC6"></stop></linearGradient><linearGradient id="paint1_linear_1_7294" x1="63" y1="0.5" x2="63.1373" y2="26.0524" gradientUnits="userSpaceOnUse"><stop stop-color="white"></stop><stop offset="1" stop-color="#927EBC"></stop></linearGradient></defs></svg>