<svg width="236" height="7" viewBox="0 0 236 7" fill="none" xmlns="http://www.w3.org/2000/svg">
<path d="M0.113249 3.73584L3 6.62259L5.88675 3.73584L3 0.849088L0.113249 3.73584ZM235.887 3.73584L233.001 0.849088L230.114 3.73584L233.001 6.62259L235.887 3.73584ZM3 4.23584H3.99138V3.23584H3V4.23584ZM5.97415 4.23584H7.95691V3.23584H5.97415V4.23584ZM9.93967 4.23584H11.9224V3.23584H9.93967V4.23584ZM13.9052 4.23584H15.888V3.23584H13.9052V4.23584ZM17.8707 4.23584H19.8535V3.23584H17.8707V4.23584ZM21.8363 4.23584H23.819V3.23584H21.8363V4.23584ZM25.8018 4.23584H27.7845V3.23584H25.8018V4.23584ZM29.7673 4.23584H31.7501V3.23584H29.7673V4.23584ZM33.7328 4.23584H35.7156V3.23584H33.7328V4.23584ZM37.6984 4.23584H39.6811V3.23584H37.6984V4.23584ZM41.6639 4.23584H43.6467V3.23584H41.6639V4.23584ZM45.6294 4.23584H47.6122V3.23584H45.6294V4.23584ZM49.595 4.23584H51.5777V3.23584H49.595V4.23584ZM53.5605 4.23584H55.5432V3.23584H53.5605V4.23584ZM57.526 4.23584H59.5088V3.23584H57.526V4.23584ZM61.4915 4.23584H63.4743V3.23584H61.4915V4.23584ZM65.4571 4.23584H67.4398V3.23584H65.4571V4.23584ZM69.4226 4.23584H71.4054V3.23584H69.4226V4.23584ZM73.3881 4.23584H75.3709V3.23584H73.3881V4.23584ZM77.3537 4.23584H79.3364V3.23584H77.3537V4.23584ZM81.3192 4.23584H83.302V3.23584H81.3192V4.23584ZM85.2847 4.23584H87.2675V3.23584H85.2847V4.23584ZM89.2503 4.23584H91.233V3.23584H89.2503V4.23584ZM93.2158 4.23584H95.1986V3.23584H93.2158V4.23584ZM97.1813 4.23584H99.1641V3.23584H97.1813V4.23584ZM101.147 4.23584H103.13V3.23584H101.147V4.23584ZM105.112 4.23584H107.095V3.23584H105.112V4.23584ZM109.078 4.23584H111.061V3.23584H109.078V4.23584ZM113.043 4.23584H115.026V3.23584H113.043V4.23584ZM117.009 4.23584H118.992V3.23584H117.009V4.23584ZM120.974 4.23584H122.957V3.23584H120.974V4.23584ZM124.94 4.23584H126.923V3.23584H124.94V4.23584ZM128.906 4.23584H130.888V3.23584H128.906V4.23584ZM132.871 4.23584H134.854V3.23584H132.871V4.23584ZM136.837 4.23584H138.819V3.23584H136.837V4.23584ZM140.802 4.23584H142.785V3.23584H140.802V4.23584ZM144.768 4.23584H146.75V3.23584H144.768V4.23584ZM148.733 4.23584H150.716V3.23584H148.733V4.23584ZM152.699 4.23584H154.681V3.23584H152.699V4.23584ZM156.664 4.23584H158.647V3.23584H156.664V4.23584ZM160.63 4.23584H162.612V3.23584H160.63V4.23584ZM164.595 4.23584H166.578V3.23584H164.595V4.23584ZM168.561 4.23584H170.543V3.23584H168.561V4.23584ZM172.526 4.23584H174.509V3.23584H172.526V4.23584ZM176.492 4.23584H178.475V3.23584H176.492V4.23584ZM180.457 4.23584H182.44V3.23584H180.457V4.23584ZM184.423 4.23584H186.406V3.23584H184.423V4.23584ZM188.388 4.23584H190.371V3.23584H188.388V4.23584ZM192.354 4.23584H194.337V3.23584H192.354V4.23584ZM196.319 4.23584H198.302V3.23584H196.319V4.23584ZM200.285 4.23584H202.268V3.23584H200.285V4.23584ZM204.25 4.23584H206.233V3.23584H204.25V4.23584ZM208.216 4.23584H210.199V3.23584H208.216V4.23584ZM212.181 4.23584H214.164V3.23584H212.181V4.23584ZM216.147 4.23584H218.13V3.23584H216.147V4.23584ZM220.112 4.23584H222.095V3.23584H220.112V4.23584ZM224.078 4.23584H226.061V3.23584H224.078V4.23584ZM228.043 4.23584H230.026V3.23584H228.043V4.23584ZM232.009 4.23584H233.001V3.23584H232.009V4.23584Z" fill="white" fill-opacity="0.15"/>
</svg>
