<svg width="1441" height="263" viewBox="0 1 1441 263" xmlns="http://www.w3.org/2000/svg" preserveAspectRatio="none">
	<path class="elementor-shape-fill" d="M1440.5 0.5H0.5V16.5H1440.5V0.5Z" />
	<path class="elementor-shape-fill" d="M1440.5 18.5H0.5V33.5H1440.5V18.5Z" />
	<path class="elementor-shape-fill" d="M1440.5 35.5H0.5V49.5H1440.5V35.5Z" />
	<path class="elementor-shape-fill" d="M1440.5 52.5H0.5V65.5H1440.5V52.5Z" />
	<path class="elementor-shape-fill" d="M1440.5 70.5H0.5V82.5H1440.5V70.5Z" />
	<path class="elementor-shape-fill" d="M1440.5 87.5H0.5V98.5H1440.5V87.5Z" />
	<path class="elementor-shape-fill" d="M1440.5 104.5H0.5V114.5H1440.5V104.5Z" />
	<path class="elementor-shape-fill" d="M1440.5 122.5H0.5V131.5H1440.5V122.5Z" />
	<path class="elementor-shape-fill" d="M1440.5 139.5H0.5V147.5H1440.5V139.5Z" />
	<path class="elementor-shape-fill" d="M1440.5 157.5H0.5V164.5H1440.5V157.5Z" />
	<path class="elementor-shape-fill" d="M1440.5 174.5H0.5V180.5H1440.5V174.5Z" />
	<path class="elementor-shape-fill" d="M1440.5 191.5H0.5V196.5H1440.5V191.5Z" />
	<path class="elementor-shape-fill" d="M1440.5 209.5H0.5V213.5H1440.5V209.5Z" />
	<path class="elementor-shape-fill" d="M1440.5 226.5H0.5V229.5H1440.5V226.5Z" />
	<path class="elementor-shape-fill" d="M1440.5 244.5H0.5V246.5H1440.5V244.5Z" />
	<path class="elementor-shape-fill" d="M1440.5 261.5H0.5V262.5H1440.5V261.5Z" />
</svg>